<?xml version="1.0" encoding="UTF-8" standalone="no"?>
<!-- Created with Inkscape (http://www.inkscape.org/) -->

<svg
   xmlns:dc="http://purl.org/dc/elements/1.1/"
   xmlns:cc="http://creativecommons.org/ns#"
   xmlns:rdf="http://www.w3.org/1999/02/22-rdf-syntax-ns#"
   xmlns:svg="http://www.w3.org/2000/svg"
   xmlns="http://www.w3.org/2000/svg"
   xmlns:sodipodi="http://sodipodi.sourceforge.net/DTD/sodipodi-0.dtd"
   xmlns:inkscape="http://www.inkscape.org/namespaces/inkscape"
   width="189.55301mm"
   height="169.37357mm"
   viewBox="0 0 671.64452 600.14255"
   id="svg2"
   version="1.1"
   inkscape:version="0.91 r13725"
   sodipodi:docname="programs-logo-raw.svg"
   inkscape:export-filename="/home/mj/Desktop/flowRoot4138.png"
   inkscape:export-xdpi="150"
   inkscape:export-ydpi="150">
  <defs
     id="defs4" />
  <sodipodi:namedview
     id="base"
     pagecolor="#ffffff"
     bordercolor="#666666"
     borderopacity="1.0"
     inkscape:pageopacity="0.0"
     inkscape:pageshadow="2"
     inkscape:zoom="0.175"
     inkscape:cx="823.86342"
     inkscape:cy="483.09755"
     inkscape:document-units="px"
     inkscape:current-layer="layer1"
     showgrid="false"
     inkscape:snap-bbox="true"
     inkscape:bbox-paths="true"
     inkscape:bbox-nodes="true"
     inkscape:snap-bbox-edge-midpoints="true"
     inkscape:snap-bbox-midpoints="true"
     inkscape:object-paths="true"
     inkscape:snap-intersection-paths="true"
     inkscape:object-nodes="true"
     inkscape:snap-smooth-nodes="true"
     inkscape:snap-midpoints="true"
     inkscape:window-width="1301"
     inkscape:window-height="744"
     inkscape:window-x="65"
     inkscape:window-y="24"
     inkscape:window-maximized="1"
     fit-margin-top="0"
     fit-margin-left="0"
     fit-margin-right="0"
     fit-margin-bottom="0" />
  <metadata
     id="metadata7">
    <rdf:RDF>
      <cc:Work
         rdf:about="">
        <dc:format>image/svg+xml</dc:format>
        <dc:type
           rdf:resource="http://purl.org/dc/dcmitype/StillImage" />
        <dc:title></dc:title>
      </cc:Work>
    </rdf:RDF>
  </metadata>
  <g
     inkscape:label="Layer 1"
     inkscape:groupmode="layer"
     id="layer1"
     transform="translate(-268.42773,-38.005859)">
    <path
       style="opacity:1;fill:none;fill-opacity:1;stroke:#ffffff;stroke-width:6;stroke-miterlimit:4;stroke-dasharray:none;stroke-opacity:1"
       d="m 438.57227,172.64844 a 167.14285,167.14285 0 0 0 -167.14454,167.14258 167.14285,167.14285 0 0 0 167.14454,167.14257 167.14285,167.14285 0 0 0 121.53906,-52.70507 12.107544,12.107544 0 0 1 -4.71875,-9.57227 12.107544,12.107544 0 0 1 12.10742,-12.10742 12.107544,12.107544 0 0 1 7.9668,3.0039 167.14285,167.14285 0 0 0 29.54297,-82.68945 12.107544,12.107544 0 0 1 -11.45118,-12.07422 12.107544,12.107544 0 0 1 11.60157,-12.08984 167.14285,167.14285 0 0 0 -44.08789,-102.2168 12.107544,12.107544 0 0 1 -9.01368,4.04297 12.107544,12.107544 0 0 1 -12.10937,-12.10742 12.107544,12.107544 0 0 1 3.45898,-8.45508 167.14285,167.14285 0 0 0 -104.83593,-37.31445 z"
       id="path4136"
       inkscape:connector-curvature="0" />
    <flowRoot
       xml:space="preserve"
       id="flowRoot4138"
       style="font-style:normal;font-weight:normal;font-size:40px;line-height:125%;font-family:sans-serif;letter-spacing:0px;word-spacing:0px;fill:#ffffff;fill-opacity:1;stroke:none;stroke-width:1px;stroke-linecap:butt;stroke-linejoin:miter;stroke-opacity:1"
       transform="matrix(0.78334608,0,0,0.78334608,207.83012,-144.26356)"
       inkscape:export-xdpi="150"
       inkscape:export-ydpi="150"><flowRegion
         id="flowRegion4140"><rect
           id="rect4142"
           width="421.42856"
           height="232.85715"
           x="75.714287"
           y="503.79077"
           style="fill:#ffffff;fill-opacity:1" /></flowRegion><flowPara
         id="flowPara4144"
         style="font-style:normal;font-variant:normal;font-weight:300;font-stretch:normal;font-size:180px;font-family:Roboto;-inkscape-font-specification:'Roboto Light';text-align:center;text-anchor:middle;fill:#ffffff;fill-opacity:1">IICT</flowPara></flowRoot>    <path
       style="opacity:1;fill:none;fill-opacity:1;stroke:#ffffff;stroke-width:3;stroke-miterlimit:4;stroke-dasharray:none;stroke-opacity:1"
       d="m 727.14258,39.505859 a 75.714287,75.714287 0 0 0 -75.71485,75.712891 75.714287,75.714287 0 0 0 4.44727,25.33008 12.107544,12.107544 0 0 1 4.875,-1.04297 12.107544,12.107544 0 0 1 12.10742,12.10742 12.107544,12.107544 0 0 1 -5.43554,10.0957 75.714287,75.714287 0 0 0 59.7207,29.22461 75.714287,75.714287 0 0 0 75.71484,-75.71484 75.714287,75.714287 0 0 0 -75.71484,-75.712891 z"
       id="path4148"
       inkscape:connector-curvature="0" />
    <path
       style="opacity:1;fill:none;fill-opacity:1;stroke:#ffffff;stroke-width:3;stroke-miterlimit:4;stroke-dasharray:none;stroke-opacity:1"
       d="m 862.85742,255.21875 a 75.714287,75.714287 0 0 0 -74.68945,63.88086 12.107544,12.107544 0 0 1 9.58203,11.83398 12.107544,12.107544 0 0 1 -9.63086,11.83789 75.714287,75.714287 0 0 0 74.73828,63.87696 75.714287,75.714287 0 0 0 75.71485,-75.71485 75.714287,75.714287 0 0 0 -75.71485,-75.71484 z"
       id="path4148-0"
       inkscape:connector-curvature="0" />
    <path
       style="opacity:1;fill:none;fill-opacity:1;stroke:#ffffff;stroke-width:3;stroke-miterlimit:4;stroke-dasharray:none;stroke-opacity:1"
       d="m 751.42773,485.21875 a 75.714287,75.714287 0 0 0 -58.58593,27.83008 12.107544,12.107544 0 0 1 5.93945,10.40234 12.107544,12.107544 0 0 1 -12.10742,12.10742 12.107544,12.107544 0 0 1 -5.91602,-1.55078 75.714287,75.714287 0 0 0 -5.04297,26.92578 75.714287,75.714287 0 0 0 75.71289,75.71485 75.714287,75.714287 0 0 0 75.71485,-75.71485 75.714287,75.714287 0 0 0 -75.71485,-75.71484 z"
       id="path4148-8"
       inkscape:connector-curvature="0" />
    <flowRoot
       xml:space="preserve"
       id="flowRoot4138-4"
       style="font-style:normal;font-weight:normal;font-size:31.33384323px;line-height:125%;font-family:sans-serif;letter-spacing:0px;word-spacing:0px;fill:#ffffff;fill-opacity:1;stroke:none;stroke-width:1px;stroke-linecap:butt;stroke-linejoin:miter;stroke-opacity:1"
       inkscape:export-xdpi="150"
       inkscape:export-ydpi="150"
       transform="matrix(0.56681817,0,0,0.56681817,662.73299,86.028501)"><flowRegion
         id="flowRegion4140-0"><rect
           id="rect4142-2"
           width="330.12442"
           height="182.40773"
           x="-57.795925"
           y="-37.912918"
           style="fill:#ffffff;fill-opacity:1" /></flowRegion><flowPara
         id="flowPara4144-1"
         style="font-style:normal;font-variant:normal;font-weight:300;font-stretch:normal;font-size:141.00228882px;font-family:Roboto;-inkscape-font-specification:'Roboto Light';text-align:center;text-anchor:middle;fill:#ffffff;fill-opacity:1">IT</flowPara></flowRoot>    <flowRoot
       xml:space="preserve"
       id="flowRoot4138-4-9"
       style="font-style:normal;font-weight:normal;font-size:17.76059151px;line-height:125%;font-family:sans-serif;letter-spacing:0px;word-spacing:0px;fill:#ffffff;fill-opacity:1;stroke:none;stroke-width:1px;stroke-linecap:butt;stroke-linejoin:miter;stroke-opacity:1"
       inkscape:export-xdpi="150"
       inkscape:export-ydpi="150"
       transform="translate(835.40303,302.52501)"><flowRegion
         id="flowRegion4140-0-8"><rect
           id="rect4142-2-5"
           width="187.12051"
           height="103.39201"
           x="-69.130402"
           y="-22.270575"
           style="fill:#ffffff;fill-opacity:1" /></flowRegion><flowPara
         id="flowPara4144-1-1"
         style="font-style:normal;font-variant:normal;font-weight:300;font-stretch:normal;font-size:79.92266083px;font-family:Roboto;-inkscape-font-specification:'Roboto Light';text-align:center;text-anchor:middle;fill:#ffffff;fill-opacity:1">IS</flowPara></flowRoot>    <flowRoot
       xml:space="preserve"
       id="flowRoot4138-4-9-2"
       style="font-style:normal;font-weight:normal;font-size:17.76059151px;line-height:125%;font-family:sans-serif;letter-spacing:0px;word-spacing:0px;fill:#ffffff;fill-opacity:1;stroke:none;stroke-width:1px;stroke-linecap:butt;stroke-linejoin:miter;stroke-opacity:1"
       inkscape:export-xdpi="150"
       inkscape:export-ydpi="150"
       transform="translate(725.84768,532.52502)"><flowRegion
         id="flowRegion4140-0-8-4"><rect
           id="rect4142-2-5-8"
           width="187.12051"
           height="103.39201"
           x="-69.130402"
           y="-22.270575"
           style="fill:#ffffff;fill-opacity:1" /></flowRegion><flowPara
         id="flowPara4144-1-1-3"
         style="font-style:normal;font-variant:normal;font-weight:300;font-stretch:normal;font-size:79.92266083px;font-family:Roboto;-inkscape-font-specification:'Roboto Light';text-align:center;text-anchor:middle;fill:#ffffff;fill-opacity:1">CS</flowPara></flowRoot>    <path
       style="fill:none;fill-rule:evenodd;stroke:#ffffff;stroke-width:2;stroke-linecap:butt;stroke-linejoin:miter;stroke-miterlimit:4;stroke-dasharray:none;stroke-opacity:1"
       d="m 562.67934,212.60721 88.38022,-53.73379"
       id="path4247"
       inkscape:connector-curvature="0"
       sodipodi:nodetypes="cc" />
    <path
       style="fill:none;fill-rule:evenodd;stroke:#ffffff;stroke-width:2;stroke-linecap:butt;stroke-linejoin:miter;stroke-miterlimit:4;stroke-dasharray:none;stroke-opacity:1"
       d="m 617.77307,340.78958 155.76221,-9.85593"
       id="path4247-9"
       inkscape:connector-curvature="0"
       sodipodi:nodetypes="cc" />
    <path
       style="fill:none;fill-rule:evenodd;stroke:#ffffff;stroke-width:2;stroke-linecap:butt;stroke-linejoin:miter;stroke-miterlimit:4;stroke-dasharray:none;stroke-opacity:1"
       d="m 576.86421,452.33018 100.38332,63.52305"
       id="path4247-4"
       inkscape:connector-curvature="0"
       sodipodi:nodetypes="cc" />
    <circle
       style="opacity:1;fill:none;fill-opacity:1;stroke:#ffffff;stroke-width:3;stroke-miterlimit:4;stroke-dasharray:none;stroke-opacity:1"
       id="path4270"
       cx="660.74957"
       cy="151.6142"
       r="12.107544" />
    <circle
       style="opacity:1;fill:none;fill-opacity:1;stroke:#ffffff;stroke-width:3;stroke-miterlimit:4;stroke-dasharray:none;stroke-opacity:1"
       id="path4270-6"
       cx="785.64282"
       cy="330.93365"
       r="12.107544" />
    <circle
       style="opacity:1;fill:none;fill-opacity:1;stroke:#ffffff;stroke-width:3;stroke-miterlimit:4;stroke-dasharray:none;stroke-opacity:1"
       id="path4270-0"
       cx="686.67395"
       cy="523.4516"
       r="12.107544" />
    <circle
       style="opacity:1;fill:none;fill-opacity:1;stroke:#ffffff;stroke-width:6;stroke-miterlimit:4;stroke-dasharray:none;stroke-opacity:1"
       id="path4270-7"
       cx="567.49921"
       cy="444.65625"
       r="12.107544" />
    <circle
       style="opacity:1;fill:none;fill-opacity:1;stroke:#ffffff;stroke-width:6;stroke-miterlimit:4;stroke-dasharray:none;stroke-opacity:1"
       id="path4270-77"
       cx="605.66553"
       cy="340.78958"
       r="12.107544" />
    <circle
       style="opacity:1;fill:none;fill-opacity:1;stroke:#ffffff;stroke-width:6;stroke-miterlimit:4;stroke-dasharray:none;stroke-opacity:1"
       id="path4270-3"
       cx="552.05768"
       cy="218.41866"
       r="12.107544" />
  </g>
</svg>
